<svg width="176" height="170" viewBox="0 0 176 170" fill="none" xmlns="http://www.w3.org/2000/svg">
<rect width="176" height="170" fill="white"/>
<path d="M97.6125 116.867C102.219 95.418 134.944 79.0156 134.944 15H41.375C41.375 79.0156 74.1 95.4844 78.7063 116.867H97.6125ZM69.4938 45.8125L82.4187 44.0859L88.125 32.7305L93.8313 44.0859L106.756 45.8125L97.3375 54.5781L99.6062 66.9961L88.125 61.0195L76.575 66.9961L78.8438 54.5781L69.4938 45.8125ZM42.6125 71.1133C44.6062 75.8281 46.8062 80.0781 49.0062 83.9961C24.1875 73.9023 9.40625 49.9297 7 24.6289H32.4375C32.575 27.4844 32.7813 30.3398 33.0563 33.1289H17.3125C19.9938 45.0156 26.525 60.8867 42.6125 71.1133ZM117 145.488V154.52H59.3187V145.488C74.2375 145.488 78.1562 133.402 78.8438 125.301C78.8438 125.301 96.7875 125.301 97.4062 125.301C98.0938 133.402 101.6 145.488 117 145.488ZM169.25 24.6289C166.844 49.9297 152.131 73.9023 127.381 83.9297C129.581 80.0117 131.781 75.7617 133.775 71.0469C149.794 60.8203 156.256 44.9492 158.938 33.0625H143.262C143.537 30.2734 143.744 27.4844 143.881 24.5625L169.25 24.6289Z" fill="#BCCE5E"/>
</svg>
