<svg width="126" height="124" viewBox="0 0 126 124" fill="none" xmlns="http://www.w3.org/2000/svg">
<path d="M63 123.545C97.8243 123.545 126 95.9176 126 61.7712C126 27.6248 97.8243 0 63 0C28.1757 0 0 27.6248 0 61.7712C0 95.9176 28.1757 123.545 63 123.545Z" fill="url(#paint0_linear_3_62)"/>
<path opacity="0.1" d="M63.0021 0L58.1028 0.171405C72.6285 1.19984 85.5771 7.20515 95.7285 16.2998L93.45 18.5322C91.5264 20.4197 90.6507 23.3377 91.35 25.9108L93.2757 33.8036L61.7757 64.8606L58.6257 61.7733V69.4947C58.6113 70.0385 58.7099 70.5795 58.9155 71.0854C59.1212 71.5913 59.4297 72.0518 59.8227 72.4392C60.2148 72.8231 60.6833 73.1254 61.1996 73.3275C61.7159 73.5296 62.2692 73.6272 62.8257 73.6145C63.8757 73.6145 65.1 73.2697 65.8014 72.4106L96.7764 42.0413L104.826 43.9288C107.451 44.6144 110.426 43.7573 112.35 41.8678C114.45 48.0466 115.676 54.7395 115.676 61.7733C115.676 94.2036 90.1257 120.8 57.5757 123.375C59.6757 123.547 61.2507 123.547 63 123.547C97.8264 123.547 126 95.9197 126 61.7733C126 27.6269 97.8264 0.00204039 63 0.00204039L63.0021 0Z" fill="black"/>
<path d="M63 68.9764C67.0257 68.9764 70.35 65.7176 70.35 61.7712C70.35 57.8248 67.0257 54.564 63 54.564C58.9743 54.564 55.65 57.8228 55.65 61.7712C55.65 65.7176 58.9743 68.9764 63 68.9764Z" fill="url(#paint1_linear_3_62)"/>
<path d="M62.9979 18.1853C38.4972 18.1853 18.5472 37.75 18.5472 61.7712C18.5472 85.7925 38.4972 105.355 62.9979 105.355C87.4965 105.355 107.446 85.7925 107.446 61.7692C107.446 37.748 87.4965 18.1853 62.9979 18.1853ZM62.9979 87.1658C59.5928 87.1727 56.2205 86.5206 53.0775 85.2477C49.9272 83.9705 47.0687 82.0993 44.667 79.7423C42.2582 77.3786 40.3516 74.5775 39.0558 71.4985C37.7553 68.4115 37.0896 65.1069 37.0965 61.7712C37.0896 58.4356 37.7553 55.131 39.0558 52.044C40.3515 48.9644 42.2581 46.1626 44.667 43.7982C47.0688 41.4419 49.9274 39.5714 53.0775 38.2948C56.2205 37.0219 59.5928 36.3698 62.9979 36.3767C66.4023 36.3694 69.7741 37.0215 72.9162 38.2948C76.0663 39.5714 78.9248 41.4419 81.3267 43.7982C83.7363 46.1624 85.6436 48.9642 86.94 52.044C88.2399 55.1293 88.9035 58.4329 88.8972 61.7712C88.9044 65.1061 88.2395 68.41 86.94 71.4965C85.6438 74.5763 83.7364 77.3782 81.3267 79.7423C78.925 82.0993 76.0665 83.9705 72.9162 85.2477C69.7739 86.5204 66.4022 87.1724 62.9979 87.1658Z" fill="url(#paint2_linear_3_62)"/>
<path d="M61.7778 64.8586L58.6278 61.7712V67.6052C59.8521 68.4622 61.2528 68.9764 63.0021 68.9764C64.9508 68.9621 66.8143 68.1983 68.1849 66.8522C69.5615 65.4981 70.3385 63.6746 70.35 61.7712C70.35 60.2266 69.825 58.8533 68.9514 57.6514L61.7778 64.8586Z" fill="url(#paint3_linear_3_62)"/>
<path opacity="0.1" d="M92.2278 28.8267L93.4521 33.8016L82.2528 44.6123C84.1785 46.6712 85.9278 49.2444 86.9778 51.9909L97.1271 42.0372L103.427 43.5819C100.802 37.9194 96.9528 32.9445 92.2278 28.8267Z" fill="black"/>
<path d="M123.375 16.6427L111.999 13.7247L109.198 2.57313C109.032 1.9865 108.711 1.45204 108.268 1.02232C107.826 0.595968 107.277 0.289473 106.676 0.133374C106.075 -0.022725 105.442 -0.0229773 104.84 0.132641C104.238 0.29065 103.689 0.599551 103.249 1.02844L90.9993 13.0391C89.0736 14.9266 88.1979 17.8445 88.8993 20.4177L92.0493 33.1159L104.998 36.2053C107.623 36.8909 110.599 36.0319 112.524 34.1444L124.774 22.1338C126.874 20.4197 125.998 17.1569 123.373 16.6447L123.375 16.6427Z" fill="url(#paint4_linear_3_62)"/>
<path d="M123.375 16.6427L111.999 13.7247L109.198 2.57313C109.032 1.9865 108.711 1.45204 108.268 1.02232C107.826 0.595968 107.277 0.289473 106.676 0.133374C106.075 -0.022725 105.442 -0.0229773 104.84 0.132641C104.238 0.29065 103.689 0.599551 103.249 1.02844L90.9993 13.0391C89.0736 14.9266 88.1979 17.8445 88.8993 20.4177L92.0493 33.1159L104.998 36.2053C107.623 36.8909 110.599 36.0319 112.524 34.1444L124.774 22.1338C126.874 20.4197 125.998 17.1569 123.373 16.6447L123.375 16.6427Z" fill="url(#paint5_linear_3_62)"/>
<path d="M123.371 16.6426L111.997 13.7247L109.196 2.57311C109.029 1.98649 108.709 1.45203 108.265 1.0223C107.824 0.595607 107.275 0.288904 106.673 0.132795C106.071 -0.0233141 105.438 -0.0233714 104.836 0.132628C104.235 0.290964 103.687 0.599844 103.246 1.02842L96.4215 7.7214C94.4958 9.60686 93.6201 12.5248 94.3215 15.098L97.4715 27.7962L110.42 30.8856C113.045 31.5712 116.021 30.7142 117.946 28.8247L124.771 22.1337C126.871 20.4197 125.996 17.1569 123.371 16.6447V16.6426Z" fill="url(#paint6_linear_3_62)"/>
<path d="M123.371 16.6426L111.997 13.7247L109.196 2.57311C109.029 1.98649 108.709 1.45203 108.265 1.0223C107.824 0.595607 107.275 0.288904 106.673 0.132795C106.071 -0.0233141 105.438 -0.0233714 104.836 0.132628C104.235 0.290964 103.687 0.599844 103.246 1.02842L101.671 2.57311C99.7458 4.46061 98.8701 7.37655 99.5715 9.95171L102.721 22.648L115.67 25.7373C118.295 26.4229 121.271 25.5659 123.196 23.6764L124.771 22.1337C126.871 20.4197 125.996 17.1569 123.371 16.6447V16.6426Z" fill="url(#paint7_linear_3_62)"/>
<path d="M62.9979 66.0605C61.9479 66.0605 60.7215 65.7176 60.0222 64.8606C58.2729 63.1445 58.2729 60.5694 60.0222 58.8533L108.673 11.1516C110.422 9.4375 113.047 9.4375 114.797 11.1516C116.548 12.8676 116.548 15.4428 114.797 17.1569L65.9715 64.6892C65.2722 65.5483 64.0479 66.0605 62.9979 66.0605Z" fill="url(#paint8_linear_3_62)"/>
<defs>
<linearGradient id="paint0_linear_3_62" x1="-17.4804" y1="19.481" x2="118.012" y2="100.228" gradientUnits="userSpaceOnUse">
<stop stop-color="#BCCE5E"/>
<stop offset="1" stop-color="#BCCE5E"/>
</linearGradient>
<linearGradient id="paint1_linear_3_62" x1="18.2805" y1="61.7733" x2="106.264" y2="61.7733" gradientUnits="userSpaceOnUse">
<stop stop-color="#F2FBFF"/>
<stop offset="0.593" stop-color="#FAF7F7"/>
<stop offset="1" stop-color="#F3EAE6"/>
</linearGradient>
<linearGradient id="paint2_linear_3_62" x1="18.2784" y1="61.7733" x2="106.262" y2="61.7733" gradientUnits="userSpaceOnUse">
<stop stop-color="white"/>
<stop offset="0.416" stop-color="#F5F4F8"/>
<stop offset="1" stop-color="#EFECF3"/>
</linearGradient>
<linearGradient id="paint3_linear_3_62" x1="51.1476" y1="63.3139" x2="106.527" y2="63.3139" gradientUnits="userSpaceOnUse">
<stop stop-color="#F3EAE6"/>
<stop offset="1" stop-color="#CDBFBA"/>
</linearGradient>
<linearGradient id="paint4_linear_3_62" x1="85.3146" y1="18.2649" x2="111.667" y2="18.2649" gradientUnits="userSpaceOnUse">
<stop stop-color="#FFF9DF"/>
<stop offset="0.593" stop-color="#FFE177"/>
<stop offset="1" stop-color="#FEB137"/>
</linearGradient>
<linearGradient id="paint5_linear_3_62" x1="85.3146" y1="18.2649" x2="111.667" y2="18.2649" gradientUnits="userSpaceOnUse">
<stop stop-color="#FFF9DF"/>
<stop offset="0.593" stop-color="#FFE177"/>
<stop offset="1" stop-color="#FEB137"/>
</linearGradient>
<linearGradient id="paint6_linear_3_62" x1="85.3125" y1="15.6407" x2="111.665" y2="15.6407" gradientUnits="userSpaceOnUse">
<stop stop-color="#FFF9DF"/>
<stop offset="0.593" stop-color="#FFE177"/>
<stop offset="1" stop-color="#FEB137"/>
</linearGradient>
<linearGradient id="paint7_linear_3_62" x1="85.3125" y1="13.0166" x2="111.665" y2="13.0166" gradientUnits="userSpaceOnUse">
<stop stop-color="#FFF9DF"/>
<stop offset="0.593" stop-color="#FFE177"/>
<stop offset="1" stop-color="#FEB137"/>
</linearGradient>
<linearGradient id="paint8_linear_3_62" x1="58.8504" y1="37.9194" x2="115.141" y2="37.9194" gradientUnits="userSpaceOnUse">
<stop stop-color="#3BC4FE"/>
<stop offset="1" stop-color="#3C76F2"/>
</linearGradient>
</defs>
</svg>
