<svg width="141" height="164" viewBox="0 0 141 164" fill="none" xmlns="http://www.w3.org/2000/svg">
<path d="M135.332 164C139.425 164 141.961 159.539 139.622 156.381C136.306 151.546 130.457 148.386 124.027 148.386C122.383 148.377 120.746 148.564 119.151 148.944C114.862 141.509 106.675 136.49 97.3178 136.49C96.3414 136.49 95.5617 136.49 94.5875 136.675V128.311H46.2373V138.72C37.271 138.72 29.6677 143.367 25.5723 150.246C23.0385 148.942 19.9195 148.201 16.8004 148.201C10.1712 148.201 4.51627 151.36 1.20491 156.194C-1.13655 159.539 1.39718 163.815 5.49259 163.815H135.332V164Z" fill="url(#paint0_linear_3_82)"/>
<path opacity="0.07" d="M97.3178 136.49C96.3436 136.49 95.5638 136.49 94.5875 136.675V128.311H46.2395V138.72H87.1807C95.5638 138.72 103.362 143.367 106.869 150.802C107.066 150.989 107.066 151.175 107.066 151.546C107.258 151.733 107.258 152.104 107.455 152.289C107.591 152.644 107.817 152.962 108.111 153.215C108.406 153.467 108.761 153.647 109.146 153.739C109.53 153.831 109.932 153.832 110.317 153.741C110.702 153.651 111.058 153.472 111.354 153.22C113.561 151.127 116.325 149.648 119.348 148.942C115.058 141.507 106.872 136.49 97.3178 136.49ZM21.4811 159.354C22.0644 159.354 22.6497 158.983 22.8441 158.239C23.2489 155.441 24.1734 152.735 25.5744 150.246C23.0407 148.942 19.9195 148.201 16.8004 148.201C14.461 148.201 12.1217 148.571 10.1734 149.315C14.6576 150.989 18.3599 154.334 20.5048 158.425C20.5048 159.168 20.8958 159.354 21.4811 159.354Z" fill="black"/>
<path d="M27.7129 79.6056L22.0601 84.9956C14.6512 92.06 10.5579 101.54 10.5579 111.579C10.5505 112.411 10.7169 113.236 11.0473 114.005C11.3777 114.775 11.8656 115.475 12.4824 116.063C13.0993 116.651 13.8328 117.116 14.6401 117.431C15.4475 117.746 16.3126 117.905 17.1849 117.898H43.6993V74.7737H40.3858C35.5106 74.7737 31.0285 76.6315 27.7129 79.6056Z" fill="url(#paint1_linear_3_82)"/>
<path d="M113.106 79.6056L118.758 84.9956C126.167 92.06 130.261 101.54 130.261 111.579C130.268 112.411 130.101 113.236 129.77 114.006C129.44 114.775 128.952 115.475 128.335 116.063C127.718 116.651 126.984 117.116 126.176 117.431C125.369 117.746 124.504 117.905 123.631 117.898H97.3114V74.7737H100.627C105.306 74.7737 109.794 76.6315 113.106 79.6056Z" fill="url(#paint2_linear_3_82)"/>
<path d="M106.284 58.0415V112.137H34.5407V58.0415C34.5572 40.3977 41.9202 23.482 55.0114 11.0124L62.4203 3.94796C64.6019 1.89572 67.5433 0.745102 70.6079 0.745102C73.6725 0.745102 76.6139 1.89572 78.7955 3.94796L86.2044 11.0124C99.0717 23.4668 106.284 40.3824 106.284 58.0415Z" fill="url(#paint3_linear_3_82)"/>
<path opacity="0.07" d="M85.807 11.0124L78.3981 3.94999C74.3049 0.0449937 68.0667 -0.325747 63.5825 2.8337C64.1657 3.20444 64.5566 3.57722 64.9476 3.94796L72.3544 11.0124C85.4461 23.4825 92.8091 40.399 92.825 58.0435V112.137H106.278V58.0435C106.278 40.3824 99.0632 23.4668 85.807 11.0124Z" fill="black"/>
<path d="M62.2237 3.95L54.8148 11.0124C47.0171 18.635 41.1677 27.7426 37.8521 37.7811H102.968C99.655 27.7426 93.8056 18.633 85.8135 11.0144L78.4045 3.95C74.1147 -0.327776 66.708 -0.327776 62.2237 3.95Z" fill="url(#paint4_linear_3_82)"/>
<path d="M70.4124 98.937C73.9226 98.9475 77.4003 98.2961 80.6454 97.0202C83.8906 95.7444 86.8391 93.8692 89.3214 91.5027C91.8037 89.1363 93.7707 86.3251 95.1093 83.231C96.4479 80.137 97.1317 76.8211 97.1212 73.4741C97.1322 70.1268 96.4489 66.8104 95.1106 63.7159C93.7722 60.6213 91.8053 57.8097 89.3229 55.4428C86.8406 53.0758 83.8919 51.2004 80.6464 49.9242C77.401 48.6481 73.9229 47.9965 70.4124 48.007C66.9019 47.9965 63.4238 48.6481 60.1784 49.9242C56.933 51.2004 53.9842 53.0758 51.5019 55.4428C49.0196 57.8097 47.0526 60.6213 45.7143 63.7159C44.3759 66.8104 43.6926 70.1268 43.7036 73.4741C43.6932 76.8211 44.3769 80.137 45.7155 83.231C47.0541 86.3251 49.0211 89.1363 51.5034 91.5027C53.9857 93.8692 56.9342 95.7444 60.1794 97.0202C63.4245 98.2961 66.9022 98.9475 70.4124 98.937Z" fill="url(#paint5_linear_3_82)"/>
<path opacity="0.05" d="M70.4103 48.1904C68.071 48.1904 65.926 48.5611 63.7833 48.9318C75.2833 51.7226 83.6664 61.7591 83.6664 73.47C83.6664 85.3663 75.2855 95.2194 63.7833 98.0081C65.926 98.5663 68.2654 98.7517 70.4103 98.7517C73.9208 98.7621 77.3989 98.1106 80.6443 96.8345C83.8897 95.5583 86.8385 93.6829 89.3208 91.3159C91.8031 88.949 93.7701 86.1374 95.1084 83.0428C96.4468 79.9483 97.1301 76.6319 97.1191 73.2846C97.1191 59.5285 85.2281 48.1883 70.4103 48.1883V48.1904Z" fill="black"/>
<path d="M70.4145 88.157C78.7955 88.157 85.8135 81.6507 85.8135 73.47C85.8251 71.5385 85.4346 69.6241 84.6648 67.8375C83.8949 66.051 82.7608 64.4278 81.3284 63.0621C79.8959 61.6965 78.1935 60.6154 76.3197 59.8815C74.4459 59.1477 72.438 58.7757 70.4124 58.787C68.3865 58.7754 66.3783 59.1473 64.5043 59.8812C62.6302 60.6151 60.9276 61.6963 59.495 63.0623C58.0625 64.4282 56.9285 66.0517 56.1589 67.8386C55.3892 69.6255 54.9992 71.5403 55.0114 73.472C55.0114 81.6507 62.0293 88.157 70.4145 88.157Z" fill="url(#paint6_linear_3_82)"/>
<path opacity="0.1" d="M70.4081 58.9724C68.9585 58.975 67.5157 59.1627 66.1183 59.5306C72.553 61.205 77.2317 66.9657 77.2317 73.6595C77.2317 80.3511 72.553 85.9265 66.1183 87.7863C67.513 88.1665 68.9576 88.3545 70.4081 88.3445C74.49 88.3348 78.4017 86.7842 81.2879 84.0319C84.174 81.2796 85.7996 77.5495 85.8092 73.6574C85.7985 69.7655 84.1721 66.0359 81.2857 63.2841C78.3993 60.5323 74.4898 58.9821 70.4081 58.9724Z" fill="black"/>
<path d="M34.5407 108.419V123.104C34.529 124.108 34.7277 125.104 35.1252 126.034C35.5227 126.964 36.1109 127.808 36.8554 128.518C37.5999 129.228 38.4856 129.789 39.4606 130.168C40.4355 130.547 41.4801 130.736 42.5329 130.725H98.292C99.3448 130.736 100.389 130.547 101.364 130.168C102.339 129.789 103.225 129.228 103.969 128.518C104.714 127.808 105.302 126.964 105.7 126.034C106.097 125.104 106.296 124.108 106.284 123.104V108.417L34.5407 108.419Z" fill="url(#paint7_linear_3_82)"/>
<path opacity="0.1" d="M92.825 130.727H98.2834C99.3366 130.738 100.382 130.549 101.357 130.17C102.332 129.791 103.218 129.23 103.963 128.52C104.708 127.81 105.296 126.965 105.694 126.035C106.091 125.105 106.29 124.109 106.278 123.104V108.419H92.825V130.727ZM85.807 11.0124L78.3981 3.94999C74.3049 0.0449938 68.0667 -0.325747 63.5825 2.8337C64.1657 3.20444 64.5566 3.57722 64.9476 3.94796L72.3544 11.0124C80.3486 18.635 86.198 27.7426 89.5094 37.7791H102.962C99.6485 27.7426 93.7992 18.635 85.807 11.0124Z" fill="black"/>
<defs>
<linearGradient id="paint0_linear_3_82" x1="70.4124" y1="135.371" x2="70.4124" y2="178.127" gradientUnits="userSpaceOnUse">
<stop stop-color="white"/>
<stop offset="0.416" stop-color="#F5F4F8"/>
<stop offset="1" stop-color="#EFECF3"/>
</linearGradient>
<linearGradient id="paint1_linear_3_82" x1="5.95832" y1="81.5733" x2="46.1515" y2="99.6216" gradientUnits="userSpaceOnUse">
<stop stop-color="#BCCE5E"/>
<stop offset="1" stop-color="#BCCE5E"/>
</linearGradient>
<linearGradient id="paint2_linear_3_82" x1="92.7417" y1="81.5733" x2="132.777" y2="99.4455" gradientUnits="userSpaceOnUse">
<stop stop-color="#BCCE5E"/>
<stop offset="1" stop-color="#BCCE5E"/>
</linearGradient>
<linearGradient id="paint3_linear_3_82" x1="34.31" y1="56.4159" x2="105.357" y2="56.4159" gradientUnits="userSpaceOnUse">
<stop stop-color="white"/>
<stop offset="0.416" stop-color="#F5F4F8"/>
<stop offset="1" stop-color="#EFECF3"/>
</linearGradient>
<linearGradient id="paint4_linear_3_82" x1="28.8195" y1="6.58389" x2="74.9862" y2="54.0105" gradientUnits="userSpaceOnUse">
<stop stop-color="#BCCE5E"/>
<stop offset="1" stop-color="#BCCE5E"/>
</linearGradient>
<linearGradient id="paint5_linear_3_82" x1="38.2473" y1="73.2989" x2="96.8047" y2="73.7918" gradientUnits="userSpaceOnUse">
<stop stop-color="#FFF3D9"/>
<stop offset="0.606" stop-color="#FFCC60"/>
<stop offset="1" stop-color="#FDBC31"/>
</linearGradient>
<linearGradient id="paint6_linear_3_82" x1="55.1823" y1="73.5535" x2="85.2965" y2="73.5535" gradientUnits="userSpaceOnUse">
<stop stop-color="#3BCFFE"/>
<stop offset="1" stop-color="#3C76F2"/>
</linearGradient>
<linearGradient id="paint7_linear_3_82" x1="24.5874" y1="111.937" x2="47.6568" y2="155.292" gradientUnits="userSpaceOnUse">
<stop stop-color="#BCCE5E"/>
<stop offset="1" stop-color="#BCCE5E"/>
</linearGradient>
</defs>
</svg>
